<?xml version="1.0" encoding="UTF-8" standalone="no"?>
<svg
   xmlns:dc="http://purl.org/dc/elements/1.1/"
   xmlns:cc="http://creativecommons.org/ns#"
   xmlns:rdf="http://www.w3.org/1999/02/22-rdf-syntax-ns#"
   xmlns:svg="http://www.w3.org/2000/svg"
   xmlns="http://www.w3.org/2000/svg"
   id="svg8"
   version="1.1"
   viewBox="0 0 210 297"
   height="297mm"
   width="210mm">
  <defs
     id="defs2" />
  <metadata
     id="metadata5">
    <rdf:RDF>
      <cc:Work
         rdf:about="">
        <dc:format>image/svg+xml</dc:format>
        <dc:type
           rdf:resource="http://purl.org/dc/dcmitype/StillImage" />
        <dc:title></dc:title>
      </cc:Work>
    </rdf:RDF>
  </metadata>
  <g
     id="layer2">
    <path
       id="path22"
       d="m -326.22035,117.34098 6.24298,-0.0991 -0.0991,12.98143 -6.73846,-0.19819 z"
       style="fill:none;stroke:#000000;stroke-width:0.26458332px;stroke-linecap:butt;stroke-linejoin:miter;stroke-opacity:1" />
    <path
       id="path24"
       d="m -326.75176,132.62976 7.69538,0.0865 -0.4323,14.61261 h -7.95481 z"
       style="fill:none;stroke:#000000;stroke-width:0.26458332px;stroke-linecap:butt;stroke-linejoin:miter;stroke-opacity:1" />
    <path
       id="path26"
       d="m -325.1954,158.91517 5.27439,-0.95112 2.16161,11.49987 -5.53376,0.95111 z"
       style="fill:none;stroke:#000000;stroke-width:0.26458332px;stroke-linecap:butt;stroke-linejoin:miter;stroke-opacity:1" />
    <path
       id="path28"
       d="m -305.74075,108.41953 6.22551,0.17292 -0.25939,23.25913 -6.39842,-0.2594 z"
       style="fill:none;stroke:#000000;stroke-width:0.26458332px;stroke-linecap:butt;stroke-linejoin:miter;stroke-opacity:1" />
    <path
       id="path30"
       d="m -299.51524,108.59245 23.95083,1.81577 -0.5188,20.05992 -23.77789,-0.60526 z"
       style="fill:none;stroke:#000000;stroke-width:0.26458332px;stroke-linecap:butt;stroke-linejoin:miter;stroke-opacity:1" />
    <path
       id="path32"
       d="m -275.56441,110.40822 7.00368,1.21051 -1.12403,37.09355 -7.26308,-0.34586 z"
       style="fill:none;stroke:#000000;stroke-width:0.26458332px;stroke-linecap:butt;stroke-linejoin:miter;stroke-opacity:1" />
    <path
       id="path34"
       d="m -268.56073,111.61873 h 11.4134 l -0.43232,17.81182 -11.41341,-0.0865 z"
       style="fill:none;stroke:#000000;stroke-width:0.26458332px;stroke-linecap:butt;stroke-linejoin:miter;stroke-opacity:1" />
    <path
       id="path36"
       d="m -302.80091,131.85158 -3.11277,55.77001 10.37582,0.17293 2.42104,-57.67225 z"
       style="fill:none;stroke:#000000;stroke-width:0.26458332px;stroke-linecap:butt;stroke-linejoin:miter;stroke-opacity:1" />
    <path
       id="path38"
       d="m -278.93655,187.88099 -16.60131,-0.0865 2.07518,-36.57475 16.34191,0.2594 z"
       style="fill:none;stroke:#000000;stroke-width:0.26458332px;stroke-linecap:butt;stroke-linejoin:miter;stroke-opacity:1" />
    <path
       id="path40"
       d="m -276.94784,148.36642 0.86463,-17.89828 -17.03361,-0.34587 -0.5188,18.41708 z"
       style="fill:none;stroke:#000000;stroke-width:0.26458332px;stroke-linecap:butt;stroke-linejoin:miter;stroke-opacity:1" />
    <path
       id="path42"
       d="m -277.12077,151.47914 18.3306,3e-5 -1.03758,28.10117 h -18.67647 z"
       style="fill:none;stroke:#000000;stroke-width:0.26458332px;stroke-linecap:butt;stroke-linejoin:miter;stroke-opacity:1" />
    <path
       id="path44"
       d="m -235.18518,179.06154 -43.31904,0.5188 -0.43233,8.30065 h 43.6649 z"
       style="fill:none;stroke:#000000;stroke-width:0.26458332px;stroke-linecap:butt;stroke-linejoin:miter;stroke-opacity:1" />
    <path
       id="path50"
       d="m -240.37309,154.24605 -0.43233,25.16135 -6.13902,-0.43232 0.17293,-24.72903 z"
       style="fill:none;stroke:#000000;stroke-width:0.26458332px;stroke-linecap:butt;stroke-linejoin:miter;stroke-opacity:1" />
    <path
       id="path52"
       d="m -269.07953,134.18614 46.08593,0.43232 -0.0865,14.95847 -46.60466,-0.86465 z"
       style="fill:none;stroke:#000000;stroke-width:0.26458332px;stroke-linecap:butt;stroke-linejoin:miter;stroke-opacity:1" />
    <path
       id="path54"
       d="m -223.0801,149.57693 24.98846,0.43233 v -19.28173 l -70.90142,-1.38348 -0.0865,4.84209 46.08596,0.43232 z"
       style="fill:none;stroke:#000000;stroke-width:0.26458332px;stroke-linecap:butt;stroke-linejoin:miter;stroke-opacity:1" />
    <path
       id="path56"
       d="m -198.09164,130.72753 16.44444,0.15485 -0.36684,19.19799 -16.0776,-0.0711 z"
       style="fill:none;stroke:#000000;stroke-width:0.26458332px;stroke-linecap:butt;stroke-linejoin:miter;stroke-opacity:1" />
    <path
       id="path58"
       d="m -181.6472,130.88238 38.8851,0.67254 0.18341,19.01457 -39.43535,-0.48912 z"
       style="fill:none;stroke:#000000;stroke-width:0.26458332px;stroke-linecap:butt;stroke-linejoin:miter;stroke-opacity:1" />
    <path
       id="path60"
       d="m -142.7621,131.55492 8.19277,0.12228 0.6114,19.19799 -8.62076,-0.3057 z"
       style="fill:none;stroke:#000000;stroke-width:0.26458332px;stroke-linecap:butt;stroke-linejoin:miter;stroke-opacity:1" />
    <path
       id="path62"
       d="m -136.22011,150.93633 0.12228,3.9741 -110.67368,-0.66438 0.23777,-5.05821 z"
       style="fill:none;stroke:#000000;stroke-width:0.26458332px;stroke-linecap:butt;stroke-linejoin:miter;stroke-opacity:1" />
    <path
       id="path64"
       d="m -136.09783,154.91043 0.52049,24.02142 -6.57135,0.1297 -0.47556,-24.12378 z"
       style="fill:none;stroke:#000000;stroke-width:0.26458332px;stroke-linecap:butt;stroke-linejoin:miter;stroke-opacity:1" />
    <path
       id="path66"
       d="m -142.14869,179.06155 -98.65673,0.34585 0.43233,-25.16135 97.74884,0.69172 z"
       style="fill:none;stroke:#000000;stroke-width:0.26458332px;stroke-linecap:butt;stroke-linejoin:miter;stroke-opacity:1" />
    <path
       id="path68"
       d="m -184.08428,108.24659 36.74768,3.9774 -0.60526,8.12773 -35.79656,-3.11275 z"
       style="fill:none;stroke:#000000;stroke-width:0.26458332px;stroke-linecap:butt;stroke-linejoin:miter;stroke-opacity:1" />
    <path
       id="path70"
       d="m -105.89463,112.11237 45.121384,3.66841 0.855962,3.17928 -13.083979,-1.10052 8.804171,25.43428 -44.020868,-3.79069 z"
       style="fill:none;stroke:#000000;stroke-width:0.26458332px;stroke-linecap:butt;stroke-linejoin:miter;stroke-opacity:1" />
    <path
       id="path72"
       d="m -73.001263,117.85954 13.083979,1.10052 11.738895,34.72757 -12.350298,-0.24456 z"
       style="fill:none;stroke:#000000;stroke-width:0.26458332px;stroke-linecap:butt;stroke-linejoin:miter;stroke-opacity:1" />
    <path
       id="path74"
       d="m -63.830252,145.73942 3.301566,7.70365 -61.751494,-1.10052 0.12229,-9.78241 z"
       style="fill:none;stroke:#000000;stroke-width:0.26458332px;stroke-linecap:butt;stroke-linejoin:miter;stroke-opacity:1" />
    <path
       id="path76"
       d="m -122.15789,156.13323 -0.12229,-3.79068 9.78242,0.12228 v 3.85183 z"
       style="fill:none;stroke:#000000;stroke-width:0.26458332px;stroke-linecap:butt;stroke-linejoin:miter;stroke-opacity:1" />
    <path
       id="path78"
       d="m -78.626151,153.32079 0.244559,18.46431 -10.760654,-0.67254 0.366839,-18.15861 z"
       style="fill:none;stroke:#000000;stroke-width:0.26458332px;stroke-linecap:butt;stroke-linejoin:miter;stroke-opacity:1" />
    <path
       id="path80"
       d="m -67.131816,153.25965 18.953427,0.42798 6.72541,22.25499 -17.975186,3.79069 z"
       style="fill:none;stroke:#000000;stroke-width:0.26458332px;stroke-linecap:butt;stroke-linejoin:miter;stroke-opacity:1" />
    <path
       id="path82"
       d="m -41.452979,175.94262 2.751304,-0.36684 3.912965,9.35444 -16.324403,3.30156 -7.948212,0.18342 -2.567882,-8.25391 2.201042,-0.42798 z"
       style="fill:none;stroke:#000000;stroke-width:0.26458332px;stroke-linecap:butt;stroke-linejoin:miter;stroke-opacity:1" />
    <path
       id="path84"
       d="m -64.441651,178.20481 4.279804,-0.97824 -5.747168,-19.44255 -4.340944,1.16166 z"
       style="fill:none;stroke:#000000;stroke-width:0.26458332px;stroke-linecap:butt;stroke-linejoin:miter;stroke-opacity:1" />
    <path
       id="path86"
       d="m -72.940123,174.10842 0.917101,6.11401 -19.992808,0.97824 -0.672542,-5.80831 z"
       style="fill:none;stroke:#000000;stroke-width:0.26458332px;stroke-linecap:butt;stroke-linejoin:miter;stroke-opacity:1" />
    <path
       id="path88"
       d="m -96.234497,162.06382 0.06114,4.03525 -23.966913,-0.67254 0.24456,-3.91297 z"
       style="fill:none;stroke:#000000;stroke-width:0.26458332px;stroke-linecap:butt;stroke-linejoin:miter;stroke-opacity:1" />
    <path
       id="path90"
       d="m -251.44063,127.35539 0.17293,-9.68409 8.47358,-3.11275 16.94717,0.34586 27.84178,4.49619 -1.03759,7.09014 z"
       style="fill:none;stroke:#000000;stroke-width:0.26458332px;stroke-linecap:butt;stroke-linejoin:miter;stroke-opacity:1" />
    <path
       id="path92"
       d="m -289.39881,198.08388 45.13479,-3.11275 0.69172,8.38712 -45.30774,2.76688 z"
       style="fill:none;stroke:#000000;stroke-width:0.26458332px;stroke-linecap:butt;stroke-linejoin:miter;stroke-opacity:1" />
    <path
       id="path94"
       d="m -242.18886,196.95983 8.56005,-0.60526 0.51879,6.05256 -8.38712,0.69172 z"
       style="fill:none;stroke:#000000;stroke-width:0.26458332px;stroke-linecap:butt;stroke-linejoin:miter;stroke-opacity:1" />
    <path
       id="path96"
       d="m -145.0885,190.12908 1.03758,7.09014 -89.0591,5.18791 0.69172,-7.436 z"
       style="fill:none;stroke:#000000;stroke-width:0.26458332px;stroke-linecap:butt;stroke-linejoin:miter;stroke-opacity:1" />
    <path
       id="path98"
       d="m -133.24278,191.85838 -0.0865,3.9774 -10.72167,1.38344 -0.34586,-4.75558 z"
       style="fill:none;stroke:#000000;stroke-width:0.26458332px;stroke-linecap:butt;stroke-linejoin:miter;stroke-opacity:1" />
  </g>
</svg>
