<?xml version="1.0" encoding="utf-8"?>
<!-- Generator: Adobe Illustrator 21.0.2, SVG Export Plug-In . SVG Version: 6.00 Build 0)  -->
<svg version="1.1" id="Слой_1" xmlns="http://www.w3.org/2000/svg" xmlns:xlink="http://www.w3.org/1999/xlink" x="0px" y="0px"
	 width="829.9199829px" height="277.2799988px" viewBox="0 0 829.9199829 277.2799988"
	 style="enable-background:new 0 0 829.9199829 277.2799988;" xml:space="preserve">
<style type="text/css">
	.st0{fill:none;stroke:#000000;stroke-width:0.26;}
</style>
<title>Ресурс 1</title>
<g id="Слой_2">
	<g id="svg8">
		<path id="path22" class="st0" d="M3.6400001,25.7399998l17.7000008,0.1000004l-0.5,36.2999992L2.9400005,61.7399979
			L3.6400001,25.7399998z"/>
		<path id="path24" class="st0" d="M2,68.7399979l22,0.1999969l-1.2000008,41.7999954H0.5L2,68.7399979z"/>
		<path id="path26" class="st0" d="M6.3400002,146.8399963l13.6000004-1.6000061l3.1000004,27.8999939l-13.6000004,1.6000061
			L6.3400002,146.8399963z"/>
		<path id="path28" class="st0" d="M61.6382904,0.2237105L79.3399963,0.64L78,66.3399963l-17.7000008-0.5L61.6382904,0.2237105z"/>
		<path id="path30" class="st0" d="M79.3399963,0.64l67.5,1.2c-0.6000061,20-1.2672729,39.4423485-1.9672699,59.4423485
			c-22.1397781-0.1485138-44.3020248-0.3282776-66.7708054-0.3423462L79.3399963,0.64z"/>
		<path id="path32" class="st0" d="M146.6399994,8.8400002l20.3999939-0.1000004c-1,34.9000015-2,70.3000031-3,105.1999969
			c-7-0.0999985-13.8999939-0.1999969-20.8999939-0.4000015C144.4400024,78.6399994,145.3399963,43.7400017,146.6399994,8.8400002z"
			/>
		<path id="path34" class="st0" d="M167,8.7399998h32.5l-1.1999969,51.0999985l-32.7003174-0.598175L167,8.7399998z"/>
		<path id="path36" class="st0" d="M69.3528137,66.0787888c-2.7000046,52.905632-5.4128227,105.822197-8.1128159,158.6611633
			l29.4000015,0.5000458c1.9000015-54.7058411,3.8195724-109.5802383,5.7862473-164.2860565
			c-5.9438705,0.0092468-12.1791916-0.0314331-18.3243256-0.0314331C78.0678101,62.7298203,78.0340576,64.5183868,78,66.323082
			C75.0061035,66.2478561,72.2528152,66.1787949,69.3528137,66.0787888z"/>
		<path id="path38" class="st0" d="M141.3399963,225.7400055l-50.6999969-0.3999939
			c1.1999969-34.5,2.4348526-69.0999908,3.6348495-103.5999985c16,0.1999969,32.0651474,0.3000031,48.0651474,0.5
			c-0.3000031,26.5999985-0.5,53.2000046-0.8000031,79.7999954
			C141.4400024,209.9400024,141.4400024,217.8399963,141.3399963,225.7400055z"/>
		<path id="path40" class="st0" d="M143.1399994,113.0844193l1.7327271-51.8020668l-48.4464798-0.3284073l-1.8315353,51.3325996
			L143.1399994,113.0844193z"/>
		<path id="path42" class="st0" d="M142.3399963,122.1399994l52,0.3000031l-0.4998322,79.2725677
			c-17.5,0.1000061-34.8001709,0.0274353-52.3001709,0.1274414
			C141.8399963,175.3400116,142.0399933,148.7733307,142.3399963,122.1399994z"/>
		<path id="path44" class="st0" d="M261.2393799,201.4947205l-119.6993866,0.3452911
			c-0.1000061,7.8999939-0.3000031,15.9999847-0.3000031,23.8999939l120.1000061-0.1999969L261.2393799,201.4947205z"/>
		<path id="path50" class="st0" d="M246.5399933,129.9400024c-0.0999908,23.9000092-0.2566376,47.6805878-0.489975,71.5805817
			l-17.8094025,0.1083221l0.09935-71.7889099C234.5400085,129.8766479,240.4400177,129.9078217,246.5399933,129.9400024z"/>
		<path id="path52" class="st0" d="M165.2400055,72.7399979l131.1000214,1.1999969l-0.1994324,42.2740784L164,113.8399963
			L165.2400055,72.7399979z"/>
		<path id="path54" class="st0" d="M296.1405945,116.2140732l71.1994324,1.3259201V62.8400002l-201.7403412-3.5981789
			c-0.0937958,4.5189629-0.2064514,9.0020065-0.384079,13.4988785l131.1244202,1.199295L296.1405945,116.2140732z"/>
		<path id="path56" class="st0" d="M367.3399963,62.8400002l45,1.2999992v54.233345l-45-0.8333511V62.8400002z"/>
		<path id="path58" class="st0" d="M412.3399963,64.1399994l111.3000183,1.5999908
			c-0.0996704,18.2168884-0.1832886,36.4008026-0.2635498,54.5231171c-37-0.6999969-73.9364624-1.1897583-111.0364685-1.8897629
			V64.1399994z"/>
		<path id="path60" class="st0" d="M523.6400146,65.7399902l23.2999878,0.3000107
			c0.0999756,18.2000046,0.2999878,36.4000015,0.4000244,54.5999985c-8-0.0999985-15.963562-0.2769012-23.963562-0.3768921
			C523.4607544,102.1735229,523.5391846,83.9659271,523.6400146,65.7399902z"/>
		<path id="path62" class="st0" d="M542.4234009,120.5676727c0,3.6999969,0.1165771,7.3723297,0.1165771,11.0723267
			l-314.2000122-1.8000031l0.199707-14.7789536C333.2397156,116.7610474,437.7233582,118.9276733,542.4234009,120.5676727z"/>
		<path id="path64" class="st0" d="M542.539978,131.6399994l1.5,68.0999908l-18.5999756,0.3999939l-1.2999878-68.6000061
			L542.539978,131.6399994z"/>
		<path id="path66" class="st0" d="M525.4400024,200.1399994c-93.1000061,0.5-186.289978,0.8318329-279.3899841,1.3984985
			c0.1222992-23.9146881,0.2566376-47.6984863,0.489975-71.5984955
			c92.4999847,0.5999908,185.1000214,1.1333008,277.6000366,1.5999756
			C524.539978,154.2399597,524.9400024,177.3399963,525.4400024,200.1399994z"/>
		<path id="path68" class="st0" d="M410.8706665,0.8144369l99.8693237,10.1255636l-2.5,22.5000019l-100.5-11.2000008
			L410.8706665,0.8144369z"/>
		<path id="path70" class="st0" d="M628.1400146,10.6400003L756,21l2.4000244,9l-37.0999756-3.1000004
			C729.6000366,50.5999985,737.7000732,73.8000031,746.000061,97.5c-41.5999756-3.1999969-83-6-124.5999756-9.1999969
			L628.1400146,10.6400003z"/>
		<path id="path72" class="st0" d="M721.3400269,26.8400002l37.0999756,3.2000008l33.2999878,98.4000015l-35-0.5999985
			L721.3400269,26.8400002z"/>
		<path id="path74" class="st0" d="M748.9400024,105.4400024c2.5999756,7.5,5.2000122,14.9000015,7.7999878,22.4000015
			c-58.5-1-116.9666138-1.933342-175.3999634-3.0000076l0.2999268-27.7999878
			C637.4400024,99.7399979,693.1400146,102.6399994,748.9400024,105.4400024z"/>
		<path id="path76" class="st0" d="M580.8400269,135.6399994c0.2999878-3.6000061,0.2000122-7.1999969,0.5-10.8000031
			c9.2000122,0.0999985,18.7999878,0.4016876,28,0.5016861V136
			C599.8400269,135.8399963,590.3400269,135.7400055,580.8400269,135.6399994z"/>
		<path id="path78" class="st0" d="M705.3400269,126.9733582c0.2000122,17.6000061,0.4000244,35.1666412,0.5999756,52.7666321
			l-30.5-1.8999939l0.9970703-51.3503342C686.137085,126.6896667,695.7399902,126.8733597,705.3400269,126.9733582z"/>
		<path id="path80" class="st0" d="M738.1400146,127.5240479l53.5999756,0.9159546l19.1932373,63.0776672l-50.9932251,10.7223358
			L738.1400146,127.5240479z"/>
		<path id="path82" class="st0" d="M810.8400269,191.5399933c2.5-0.6000061,5-1.1000061,7.5999756-1.6999969
			c3.736145,8.9276276,7.6173096,18.1955719,11.2999878,27.1000061l-46.2999878,9.3999939l-22.5,0.5l-7.2999878-23.3999939
			l6.2000122-1.1999969L810.8400269,191.5399933z"/>
		<path id="path84" class="st0" d="M745.6400146,197.9400024l12.0999756-2.8000031
			c-5.4000244-18.3999939-10.7000122-36.8000031-16.0999756-55.1999969c-4.2000122,1.1000061-8.4000244,2.3000031-12.5,3.3999939
			L745.6400146,197.9400024z"/>
		<path id="path86" class="st0" d="M721.539978,186.3399963l2.5999756,17.3000031l-56.7000122,2.8000031l-1.9000244-16.5
			L721.539978,186.3399963z"/>
		<path id="path88" class="st0" d="M655.3400269,152.2400055l0.2000122,11.3999939l-67.9000244-1.8999939l0.7000122-11.1000061
			L655.3400269,152.2400055z"/>
		<path id="path90" class="st0" d="M215,51.3800011l0.1000061-25.5c51.7999878-0.2000008,92.7999878-0.3999996,150.8999939,0
			l0.3999939,25.3999977L215,51.3800011z"/>
		<path id="path92" class="st0" d="M108,254.3399963l127.8999939-8.8000031l2,23.8000031L109.5,277.1399841L108,254.3399963z"/>
		<path id="path94" class="st0" d="M242.6399994,252.2400055l24.7755585-1.8341675l-0.0755005,16.2341766l-23.9000702,1.8999939
			L242.6399994,252.2400055z"/>
		<path id="path96" class="st0" d="M516.8400269,231.7400055l2.9000244,20.1000061l-252.3999939,14.8000031l0.1000061-21.5
			L516.8400269,231.7400055z"/>
		<path id="path98" class="st0" d="M549,232.1399994l2.2000122,14.3000031l-31.7000122,4l-2.2000122-14.6999969L549,232.1399994z"/>
		<path id="path47" class="st0" d="M194.3399963,122.5400009c11.3999939,0,22.8000031,0.3000031,34.1000061,0.3000031
			C217.1399994,122.8399963,205.7400055,122.5400009,194.3399963,122.5400009z"/>
		<path class="st0" d="M575.8400269,142.8399963"/>
		<path class="st0" d="M574.539978,144.6399994"/>
		<path class="st0" d="M143.2400055,113.9400024"/>
		<path class="st0" d="M141.4400024,201.9400024"/>
		<path class="st0" d="M141.9400024,201.8399963"/>
		<path class="st0" d="M141.5399933,202.2400055"/>
		<path class="st0" d="M94.2399979,121.8399963"/>
		<path class="st0" d="M245.9400024,201.8399963"/>
		<path class="st0" d="M523.9400024,119.3399963"/>
		<path class="st0" d="M756.7399902,127.8399963"/>
		<path class="st0" d="M705.3400269,127.5400009"/>
	</g>
</g>
</svg>
